<svg width="136" height="32" viewBox="0 0 136 32" fill="none" xmlns="http://www.w3.org/2000/svg">
<path d="M29.0841 26.431L32 21.4075L28.6953 15.9964L32 10.7145L29.0093 5.39672H22.3701L19.0056 0H12.9121L9.62243 5.4613H3.1028L0 10.5925L3.49906 15.9964L0 21.6587L3.09532 26.5387H9.62243L12.9121 32H19.1327L22.2879 26.4023L29.0841 26.431ZM15.9178 28.261L12.1794 21.9601H4.88224L8.73271 16.1256L4.88973 10.1691H12.1495L15.8879 4.026L19.3795 10.0973H26.8561L23.0131 16.0323L26.8561 21.9601H19.3346L15.9178 28.261Z" fill="black"/>
<path d="M60.6379 12.0259C60.2039 11.6712 59.6984 11.4065 59.1531 11.2484C58.5521 11.0779 57.9281 10.9941 57.3015 10.9997C56.6127 10.9929 55.9287 11.1101 55.2847 11.3452C54.7061 11.5521 54.1704 11.8563 53.7028 12.2436C53.2726 12.6019 52.9081 13.027 52.6242 13.5013C52.5332 13.6526 52.4527 13.8096 52.3834 13.9712C52.3348 13.7648 52.2686 13.5625 52.1856 13.3665C51.9736 12.8542 51.6371 12.3981 51.2042 12.0362C50.7721 11.6809 50.2676 11.4161 49.723 11.2588C49.1208 11.0883 48.4956 11.0045 47.8679 11.01C47.1614 11.002 46.4594 11.1191 45.797 11.3556C45.2154 11.5609 44.6788 11.8692 44.2152 12.2643C43.7921 12.6277 43.4349 13.0562 43.1582 13.5324C43.0284 13.7639 42.9189 14.0055 42.831 14.2545V11.2484H39.998V21.6661H42.831V15.4639C42.9521 15.1762 43.1222 14.91 43.3344 14.6761C43.7447 14.2269 44.2496 13.8665 44.8156 13.6188C45.457 13.332 46.1574 13.1879 46.8648 13.1972C47.8667 13.1972 48.5857 13.4034 49.0219 13.8157C49.4581 14.228 49.6798 14.8742 49.687 15.7541V21.6453H52.52V15.2738C52.52 15.1771 52.52 15.0907 52.52 14.9974C52.5981 14.8862 52.6821 14.779 52.7716 14.6761C53.1828 14.2277 53.6874 13.8674 54.2528 13.6188C54.8954 13.3316 55.5971 13.1875 56.3057 13.1972C57.3075 13.1972 58.0338 13.4034 58.4844 13.8157C58.9349 14.228 59.1602 14.8742 59.1602 15.7541V21.6453H61.9968V15.2738C62.0118 14.6179 61.8895 13.9658 61.6373 13.3562C61.4151 12.8447 61.0731 12.3895 60.6379 12.0259Z" fill="black"/>
<path d="M69.6344 18.6796L66.2068 10.9994H63.332L68.3053 21.3611L66.0179 25.6661H68.8308L75.9987 10.9994H73.1034L69.6344 18.6796Z" fill="black"/>
<path d="M89.6966 10.9994H86.2804L83.3095 14.4559L80.1035 10.9994H76.666L81.6887 16.2708L76.666 21.6661H80.1035L83.249 17.969L86.5618 21.6661H89.9993L84.8733 16.1434L89.6966 10.9994Z" fill="black"/>
<path d="M101.264 11.6393C100.136 11.1818 98.9121 10.9647 97.6825 11.0039C96.421 10.9766 95.167 11.193 93.9995 11.6393C93.0091 12.0182 92.157 12.6553 91.5454 13.4744C90.9437 14.3279 90.6375 15.333 90.6681 16.3539C90.6375 17.3746 90.952 18.3784 91.5671 19.2232C92.2018 20.0377 93.0718 20.6671 94.0756 21.0381C95.2503 21.4726 96.5059 21.6852 97.7695 21.6634C98.8466 21.6892 99.9196 21.5288 100.934 21.1902C101.724 20.9246 102.431 20.4811 102.993 19.8992C103.487 19.3723 103.81 18.7253 103.925 18.0336H101.155C100.938 18.5414 100.516 18.95 99.9807 19.1725C99.2704 19.4862 98.4898 19.6369 97.7042 19.6119C96.9763 19.6294 96.2525 19.5039 95.58 19.2435C95.0264 19.0224 94.5423 18.6735 94.1735 18.2296C93.8355 17.8167 93.6193 17.3285 93.5464 16.8135H103.968C104.082 15.6957 103.882 14.5695 103.388 13.5454C102.933 12.7033 102.184 12.031 101.264 11.6393ZM93.7022 15.2656C93.9114 14.6115 94.3638 14.0483 94.9782 13.6772C95.7545 13.2612 96.6328 13.0389 97.5282 13.0318C98.4235 13.0247 99.3057 13.233 100.089 13.6366C100.385 13.8163 100.632 14.0564 100.813 14.3387C100.994 14.621 101.104 14.938 101.133 15.2656H93.7022Z" fill="black"/>
<path d="M108.665 6.99936H105.998V21.666H108.665V6.99936Z" fill="black"/>
<path d="M114.665 6.99936H111.998V21.666H114.665V6.99936Z" fill="black"/>
<path d="M119.999 10.9994H117.332V21.6661H119.999V10.9994Z" fill="black"/>
<path d="M120.665 6.33334H117.332V9.00001H120.665V6.33334Z" fill="black"/>
<path d="M133.239 11.2421V14.3048C133.174 14.0752 133.096 13.8495 133.005 13.6287C132.684 12.8419 132.117 12.1717 131.383 11.712C130.498 11.2025 129.477 10.9568 128.448 11.0054C127.42 10.9907 126.404 11.223 125.491 11.6815C124.641 12.1061 123.926 12.748 123.426 13.5374C122.928 14.3898 122.666 15.3523 122.666 16.3314C122.666 17.3106 122.928 18.2731 123.426 19.1254C123.915 19.9143 124.619 20.5585 125.46 20.9881C126.336 21.4425 127.317 21.675 128.311 21.6642C129.137 21.6858 129.957 21.5203 130.705 21.1808C131.337 20.8839 131.888 20.4473 132.313 19.9063C132.717 19.3881 133.026 18.8059 133.225 18.1856L133.246 18.1079V18.8077C133.246 19.2066 133.246 19.6088 133.288 20.0179C133.33 20.4269 133.365 20.9002 133.434 21.4343H135.999V11.2421H133.239ZM132.749 18.0504C132.409 18.5569 131.923 18.9563 131.352 19.1998C130.67 19.4876 129.932 19.6272 129.189 19.6088C128.518 19.6229 127.853 19.4827 127.249 19.1998C126.713 18.9449 126.262 18.5503 125.946 18.0606C125.626 17.5445 125.465 16.9513 125.481 16.35C125.461 15.9113 125.538 15.4736 125.706 15.0657C125.874 14.6578 126.13 14.289 126.456 13.9837C127.106 13.3887 128.017 13.0912 129.189 13.0912C129.925 13.0746 130.658 13.2034 131.341 13.4698C131.91 13.6978 132.396 14.0836 132.739 14.5786C133.085 15.1086 133.259 15.7268 133.239 16.3534C133.249 16.953 133.079 17.5426 132.749 18.0504Z" fill="black"/>
</svg>
