<?xml version="1.0" encoding="utf-8"?>
<!-- Generator: Adobe Illustrator 27.1.1, SVG Export Plug-In . SVG Version: 6.00 Build 0)  -->
<svg version="1.1" id="Layer_1" xmlns="http://www.w3.org/2000/svg" xmlns:xlink="http://www.w3.org/1999/xlink" x="0px" y="0px"
	 viewBox="0 0 810 810" style="enable-background:new 0 0 810 810;" xml:space="preserve">
<style type="text/css">
	.st0{fill:#FFFFFF;}
</style>
<path class="st0" d="M807.6,420.6v-62.7v-40.2v-43.2c-10-2.2-126.1-26.2-241.8,35.1v48.7C565.8,358.1,723,346.7,807.6,420.6"/>
<path class="st0" d="M807.6,479v-43.3c-99.1-79.4-241.8-62.4-241.8-62.4V478C641.6,449.5,753.2,458.1,807.6,479"/>
<path class="st0" d="M807.6,544.4v-48.9V494c-16.1-6.3-118.6-42.3-241.8-0.9v68.7h241.8V544.4z"/>
<polygon class="st0" points="30,561.8 45.4,561.8 45.4,482.1 74,482.1 74,474.5 2.4,474.5 2.4,481.9 30,481.9 "/>
<path class="st0" d="M136.9,474.4h-24.8v2.5c9,0,9.8,8.4,9.8,8.4v76.4h15.1V474.4z"/>
<path class="st0" d="M206.5,561.8h15.1H264v-7.6h-42.4v-79.8h-24.8v2.5c9,0,9.8,8.4,9.8,8.4v68.8V561.8z"/>
<path class="st0" d="M429.8,561.8h15.1h42.4v-7.6h-42.4v-79.8H420v2.5c9,0,9.8,8.4,9.8,8.4v68.8V561.8z"/>
<path class="st0" d="M343.2,474.5l-40.9,87.3h9.2l6.6-15.3H359l7.5,15.3h18L343.2,474.5z M321.4,539l15.9-36.7l18,36.7H321.4z"/>
<path class="st0" d="M12.3,379.6v21c0,0-2.3,44.1,39.5,45.7c25.5,1,36.3-15.4,40.7-28.4c2.2-6.3,3.2-13,3.2-19.8v-35v-32.4h-4H73.3
	v2.6c10,0,10,8.4,10,8.4v20.9l-0.6,35.3c0,6.9-1.2,13.7-3.8,20c-3.9,9.8-11.8,21-27.2,21c-27.5,0-26.7-37.8-26.7-37.8v-32.5l-4,0
	H2.4v2.6C12.4,371.2,12.3,379.6,12.3,379.6"/>
<path class="st0" d="M119.7,354.1v21v0.3l-0.2,40.3h-9v6.1h39.1c0,0,9.5,0.6,12.8-10.5c0,0,2.7,10.5,20.9,10.5h285.2
	c0,0,18.7,0.3,18.7-18.7v-1.3v-44.1l-4.5,0H465c0,0-0.2,1.6-0.2,2.6c10,0,10,8.4,10,8.4v21.9v0.1v14.2c0,0,0.5,10.7-9.1,10.7H183.5
	c0,0-19.2-0.4-19.2-17.5V398l0-67.2l-3.9,0h-18.5v2.6c10,0,9.9,8.4,9.9,8.4v53.1l0,4.4c0,0,0.2,16.9-9.5,16.9h-9.6v-39.3v-1.1v-32.5
	l-4.5,0h-18.5v2.6C119.7,345.7,119.7,354.1,119.7,354.1"/>
<path class="st0" d="M461.4,344.9c3.8,0,6.9-3.1,6.9-6.9c0-3.8-3.1-6.9-6.9-6.9s-6.9,3.1-6.9,6.9
	C454.5,341.8,457.6,344.9,461.4,344.9"/>
<path class="st0" d="M480.4,344.9c3.8,0,6.9-3.1,6.9-6.9c0-3.8-3.1-6.9-6.9-6.9s-6.9,3.1-6.9,6.9
	C473.5,341.8,476.6,344.9,480.4,344.9"/>
</svg>
